<?xml version="1.0" encoding="iso-8859-1"?>
<!-- Uploaded to: SVG Repo, www.svgrepo.com, Generator: SVG Repo Mixer Tools -->
<svg fill="#000000" height="800px" width="800px" version="1.1" id="Layer_1" xmlns="http://www.w3.org/2000/svg" xmlns:xlink="http://www.w3.org/1999/xlink" 
	 viewBox="0 0 512.011 512.011" xml:space="preserve">
<g>
	<g>
		<g>
			<path d="M405.333,234.672c-11.776,0-21.333,9.557-21.333,21.333c0,11.776,9.557,21.333,21.333,21.333s21.333-9.557,21.333-21.333
				C426.667,244.229,417.109,234.672,405.333,234.672z"/>
			<path d="M106.667,106.672c11.776,0,21.333-9.557,21.333-21.333s-9.557-21.333-21.333-21.333s-21.333,9.557-21.333,21.333
				S94.891,106.672,106.667,106.672z"/>
			<path d="M377.752,70.254c-0.004-0.004-0.008-0.006-0.011-0.01c-0.494-0.493-1.012-0.96-1.552-1.403
				c-0.246-0.202-0.506-0.378-0.759-0.567c-0.304-0.228-0.602-0.463-0.918-0.675c-0.303-0.203-0.617-0.378-0.928-0.564
				c-0.286-0.171-0.566-0.351-0.861-0.509c-0.317-0.17-0.643-0.313-0.967-0.466c-0.308-0.145-0.61-0.299-0.925-0.43
				c-0.314-0.13-0.635-0.235-0.953-0.349c-0.338-0.122-0.672-0.251-1.018-0.356c-0.318-0.096-0.642-0.167-0.964-0.248
				c-0.353-0.089-0.701-0.188-1.061-0.259c-0.372-0.074-0.748-0.117-1.122-0.171c-0.314-0.045-0.622-0.105-0.941-0.136
				c-1.4-0.138-2.81-0.138-4.21,0c-0.318,0.031-0.627,0.091-0.941,0.136c-0.375,0.054-0.75,0.097-1.122,0.171
				c-0.359,0.071-0.708,0.17-1.061,0.259c-0.322,0.081-0.645,0.152-0.964,0.248c-0.346,0.105-0.68,0.234-1.018,0.356
				c-0.318,0.114-0.639,0.219-0.953,0.349c-0.315,0.131-0.618,0.284-0.925,0.43c-0.324,0.153-0.65,0.296-0.967,0.466
				c-0.295,0.158-0.575,0.338-0.861,0.509c-0.311,0.185-0.625,0.361-0.928,0.564c-0.316,0.212-0.614,0.447-0.918,0.675
				c-0.253,0.19-0.513,0.365-0.759,0.567c-0.54,0.443-1.059,0.91-1.552,1.403c-0.004,0.004-0.008,0.006-0.011,0.01l-42.667,42.667
				c-8.331,8.331-8.331,21.839,0,30.17s21.839,8.331,30.17,0l6.248-6.248v33.83c0,17.679-14.321,32-32,32s-32-14.321-32-32
				c0-41.243-33.423-74.667-74.667-74.667c-34.872,0-64.149,23.896-72.363,56.208c-26.058,8.1-44.97,32.397-44.97,61.125
				c0,35.355,28.645,64,64,64s64-28.645,64-64c0-26.244-15.789-48.777-38.384-58.655c5.53-9.57,15.865-16.011,27.718-16.011
				c17.679,0,32,14.321,32,32c0,41.243,33.423,74.667,74.667,74.667c41.243,0,74.667-33.423,74.667-74.667v-33.83l6.248,6.248
				c8.331,8.331,21.839,8.331,30.17,0c8.331-8.331,8.331-21.839,0-30.17L377.752,70.254z M149.333,234.672
				c-11.791,0-21.333-9.542-21.333-21.333s9.542-21.333,21.333-21.333s21.333,9.542,21.333,21.333S161.125,234.672,149.333,234.672z
				"/>
			<path d="M512,319.794V59.547c0-32.881-26.661-59.541-59.541-59.541H59.541C26.661,0.005,0,26.666,0,59.547v260.459
				c0,0.071,0.01,0.14,0.011,0.211v46.914c0,32.881,26.64,59.541,59.52,59.541h105.146l-10.667,42.667h-4.677
				c-11.782,0-21.333,9.551-21.333,21.333s9.551,21.333,21.333,21.333h21.333h170.667h21.333c11.782,0,21.333-9.551,21.333-21.333
				s-9.551-21.333-21.333-21.333h-4.677l-10.667-42.667h105.146c32.881,0,59.541-26.661,59.541-59.541v-47.125
				C512.011,319.934,512.001,319.865,512,319.794z M42.667,59.547c0-9.317,7.558-16.875,16.875-16.875h392.917
				c9.317,0,16.875,7.558,16.875,16.875v239.125H42.667V59.547z M314.01,469.339H197.99l10.667-42.667h94.687L314.01,469.339z
				 M469.344,367.131c0,9.317-7.558,16.875-16.875,16.875H320H192H59.531c-9.309,0-16.853-7.55-16.853-16.875v-25.792h426.667
				V367.131z"/>
		</g>
	</g>
</g>
</svg>