<?xml version="1.0" encoding="utf-8"?><!-- Uploaded to: SVG Repo, www.svgrepo.com, Generator: SVG Repo Mixer Tools -->
<svg width="800px" height="800px" viewBox="0 0 64 64" id="Layer_1" data-name="Layer 1" xmlns="http://www.w3.org/2000/svg"><defs><style>.cls-1,.cls-2,.cls-3{fill:none;stroke:#000000;stroke-linecap:round;stroke-linejoin:round;stroke-width:2px;}.cls-2{stroke-dasharray:0 5 0 0 0 0;}.cls-3{stroke-dasharray:0 6 0 0 0 0;}</style></defs><title>education, books, graduate, person, graduation</title><path class="cls-1" d="M32.64,12.27A3.72,3.72,0,0,0,26,10a5,5,0,0,0-1-.11,5.08,5.08,0,0,0-5.08,4.89h0a1.21,1.21,0,0,0,0,.19A5.2,5.2,0,0,0,20.2,17"/><path class="cls-1" d="M24.07,37h0a5.27,5.27,0,0,0,1-.78,4,4,0,0,0,.71-.88c.09-.13.17-.27.25-.41a4.94,4.94,0,0,0,.51-1.83c0-.14,0-.28,0-.43s0-.26,0-.38a4.56,4.56,0,0,0-.16-.91c0-.12-.07-.24-.11-.36a3.65,3.65,0,0,0-.23-.54,2.79,2.79,0,0,0-.18-.34,2.92,2.92,0,0,0-.24-.37,3,3,0,0,0-.27-.35,4.72,4.72,0,0,0-.72-.69,3.9,3.9,0,0,0-.36-.25,4.82,4.82,0,0,0-1.23-.59l-.39-.11"/><path class="cls-1" d="M26.14,39.92s0,0,0,0"/><path class="cls-1" d="M20.21,17A5.09,5.09,0,0,0,24,20a4.92,4.92,0,0,0,.88.08"/><path class="cls-1" d="M17.28,18.65a3.34,3.34,0,0,0-.57,1.68,7.18,7.18,0,0,0,.45,2.18c.06.24-.33.3-.49.4a6,6,0,0,0-.51.37,4.31,4.31,0,0,0-.86.9,3.91,3.91,0,0,0-.76,2.33,4.17,4.17,0,0,0,1.68,3.35,1.45,1.45,0,0,1,.52,1.53,5,5,0,0,0-.05,2.21.28.28,0,0,0,0,.09,5,5,0,0,0,3.94,3.85A5,5,0,0,0,24.07,37a5,5,0,0,0,2.52-4.34c0-.13,0-.26,0-.38a5,5,0,0,0-2.34-3.86,4.71,4.71,0,0,0-1.55-.64"/><path class="cls-1" d="M22.69,27.75l-.09,0"/><path class="cls-1" d="M41.21,37h0a4.3,4.3,0,0,1-.45-.29,3.21,3.21,0,0,1-.41-.34h0s0,0,0,0a0,0,0,0,0,0,0,.53.53,0,0,1-.14-.12.38.38,0,0,1-.09-.09,3.65,3.65,0,0,1-.27-.3,4,4,0,0,1-.35-.49c-.09-.13-.17-.27-.25-.41a5.7,5.7,0,0,1-.37-1,3.59,3.59,0,0,1-.08-.35,3.93,3.93,0,0,1-.06-.48"/><path class="cls-1" d="M38.69,32.63c0-.13,0-.26,0-.38a4.81,4.81,0,0,1,.12-.76A3.8,3.8,0,0,1,39,31a1.57,1.57,0,0,1,.12-.3,2.55,2.55,0,0,1,.13-.29l.12-.22a2.16,2.16,0,0,1,.18-.3,5,5,0,0,1,1.94-1.72,5.21,5.21,0,0,1,.74-.3l.39-.11"/><path class="cls-1" d="M45.08,17A5.2,5.2,0,0,0,45.46,15a5.09,5.09,0,0,0-5.09-5.09,5,5,0,0,0-1,.11,3.71,3.71,0,0,0-4-1.35"/><path class="cls-1" d="M40.26,20.12h.11A5.12,5.12,0,0,0,45.08,17"/><path class="cls-1" d="M45.08,17l.18,0a3.72,3.72,0,0,1,3.31,3.35,7.18,7.18,0,0,1-.45,2.18c-.06.24.33.3.49.4a6,6,0,0,1,.51.37,4.31,4.31,0,0,1,.86.9,3.91,3.91,0,0,1,.76,2.33,4.17,4.17,0,0,1-1.68,3.35,1.45,1.45,0,0,0-.52,1.53,5.08,5.08,0,0,1,0,2.3,5,5,0,0,1-3.94,3.85A5,5,0,0,1,41.21,37a2.71,2.71,0,0,1-.45-.3,2.47,2.47,0,0,1-.41-.33h0s0,0,0,0,0,0,0,0a1,1,0,0,1-.15-.14.38.38,0,0,1-.09-.09,3.65,3.65,0,0,1-.27-.3,4,4,0,0,1-.35-.49c-.09-.13-.17-.27-.25-.41a5.7,5.7,0,0,1-.37-1,3.59,3.59,0,0,1-.08-.35,3.93,3.93,0,0,1-.06-.48"/><path class="cls-1" d="M38.69,32.63c0-.13,0-.26,0-.38a4.81,4.81,0,0,1,.12-.76A3.8,3.8,0,0,1,39,31a1.57,1.57,0,0,1,.12-.3,2.55,2.55,0,0,1,.13-.29.94.94,0,0,1,.12-.22,1.83,1.83,0,0,1,.18-.3,5,5,0,0,1,1.94-1.72,4.78,4.78,0,0,1,.74-.3l.39-.1"/><path class="cls-1" d="M42.6,27.75l.09,0"/><line class="cls-1" x1="29.54" y1="20.53" x2="27" y2="26.66"/><path class="cls-1" d="M32.88,18.64h.92a2,2,0,0,1,2,2v5.09a1.4,1.4,0,0,1-1.4,1.4H30.94a1.4,1.4,0,0,1-1.4-1.4V20.53"/><path class="cls-1" d="M32.77,14.63a2,2,0,0,0,0,4"/><line class="cls-1" x1="35.6" y1="19.8" x2="38.22" y2="26.66"/><line class="cls-1" x1="29.54" y1="25.76" x2="30.21" y2="37.1"/><line class="cls-1" x1="35.78" y1="25.71" x2="35.14" y2="36.69"/><path class="cls-1" d="M32.63,30.46v6.35a.29.29,0,0,0,.28.28h1.91a.29.29,0,0,0,.28-.28"/><line class="cls-1" x1="25.8" y1="42.8" x2="35.92" y2="42.8"/><path class="cls-1" d="M42.1,49.12a3.33,3.33,0,0,0,2.31-.93,3.1,3.1,0,0,0,1-2.23,3.21,3.21,0,0,0-3.06-3.15H42.2a2.83,2.83,0,0,1-2.43-2.73,2.74,2.74,0,0,1,.8-1.93,2.7,2.7,0,0,1,1.56-.77,2.44,2.44,0,0,0-.38,0h-16a2.73,2.73,0,0,0,0,5.46H21.2A3.22,3.22,0,0,1,24.47,46a3.1,3.1,0,0,1-1,2.23,3.33,3.33,0,0,1-2.31.93h-2a3.16,3.16,0,0,0,0,6.32H49.72a3.16,3.16,0,0,1,0-6.32H28.92"/><circle cx="26.27" cy="49.1" r="1"/><path class="cls-2" d="M48.59,33.66a21.82,21.82,0,0,1,5.93,15"/><path class="cls-3" d="M10.7,48.65a21.8,21.8,0,0,1,6-15"/><line class="cls-1" x1="53.64" y1="15.21" x2="53.64" y2="19.54"/><line class="cls-1" x1="51.48" y1="17.38" x2="55.81" y2="17.38"/><line class="cls-1" x1="9.95" y1="30.6" x2="9.95" y2="34.11"/><line class="cls-1" x1="8.19" y1="32.35" x2="11.7" y2="32.35"/><line class="cls-1" x1="48.64" y1="40.82" x2="48.64" y2="42.98"/><line class="cls-1" x1="47.57" y1="41.9" x2="49.72" y2="41.9"/><line class="cls-1" x1="12.34" y1="11.52" x2="12.34" y2="14.32"/><line class="cls-1" x1="10.94" y1="12.92" x2="13.74" y2="12.92"/></svg>