<?xml version="1.0" ?>
<!-- Uploaded to: SVG Repo, www.svgrepo.com, Generator: SVG Repo Mixer Tools -->
<svg fill="#000000" width="800px" height="800px" viewBox="0 0 100 100" version="1.1" xml:space="preserve" xmlns="http://www.w3.org/2000/svg" xmlns:xlink="http://www.w3.org/1999/xlink">
<g id="news_updates"/>
<g id="newspaper"/>
<g id="fake_news"/>
<g id="secret_document"/>
<g id="interview"/>
<g id="reporter"/>
<g id="id_card"/>
<g id="camera">
<g>
<path d="M91,47h-8.4l-3.2-6.3c-0.5-1-1.6-1.7-2.7-1.7h-3.3l2.5-6.6c0-0.1,0.1-0.2,0.1-0.3c0,0,0,0,0,0v-7.7l2.9-4.8    c0.1-0.1,0.1-0.2,0.1-0.3c0.6-0.6,1-1.3,1-2.2V7c0-1.7-1.3-3-3-3H43c-1.7,0-3,1.3-3,3v10c0,0.9,0.4,1.7,1,2.2    c0,0.1,0.1,0.2,0.1,0.3l2.9,4.8V32c0,0,0,0,0,0c0,0.1,0,0.2,0.1,0.3l2.5,6.6h-3.3c-1.2,0-2.2,0.6-2.7,1.7L37.4,47H29    c-1.2,0-2.3,0.4-3.1,1.1C25.5,46.9,24.4,46,23,46h-4v-1c0-1.7-1.3-3-3-3h-2c-1.7,0-3,1.3-3,3v1H7c-1.7,0-3,1.3-3,3v44    c0,1.7,1.3,3,3,3h16c1.4,0,2.5-0.9,2.9-2.1c0.9,0.7,1.9,1.1,3.1,1.1h62c2.8,0,5-2.2,5-5V52C96,49.2,93.8,47,91,47z M46,25h28v6H46    V25z M42,7c0-0.6,0.4-1,1-1h34c0.6,0,1,0.4,1,1v10c0,0.6-0.4,1-1,1H43c-0.6,0-1-0.4-1-1V7z M76.2,20l-1.8,3H45.6l-1.8-3H76.2z     M46.4,33h27.1l-2.3,6H48.7L46.4,33z M42.3,41.6c0.2-0.4,0.5-0.6,0.9-0.6H48h24h4.7c0.4,0,0.7,0.2,0.9,0.6l2.7,5.4H39.6L42.3,41.6    z M13,45c0-0.6,0.4-1,1-1h2c0.6,0,1,0.4,1,1v1h-4V45z M24,93c0,0.6-0.4,1-1,1H7c-0.6,0-1-0.4-1-1V49c0-0.6,0.4-1,1-1h5h6h5    c0.6,0,1,0.4,1,1v3v38V93z M94,90c0,1.7-1.3,3-3,3H29c-1.7,0-3-1.3-3-3V52c0-1.7,1.3-3,3-3h9h44h9c1.7,0,3,1.3,3,3V90z"/>
<path d="M48,15h24c1.7,0,3-1.3,3-3s-1.3-3-3-3H48c-1.7,0-3,1.3-3,3S46.3,15,48,15z M48,11h24c0.6,0,1,0.4,1,1s-0.4,1-1,1H48    c-0.6,0-1-0.4-1-1S47.4,11,48,11z"/>
<path d="M60,52c-10.5,0-19,8.5-19,19s8.5,19,19,19s19-8.5,19-19S70.5,52,60,52z M60,88c-9.4,0-17-7.6-17-17s7.6-17,17-17    s17,7.6,17,17S69.4,88,60,88z"/>
<path d="M60,57c-7.7,0-14,6.3-14,14s6.3,14,14,14s14-6.3,14-14S67.7,57,60,57z M60,83c-6.6,0-12-5.4-12-12s5.4-12,12-12    s12,5.4,12,12S66.6,83,60,83z"/>
<path d="M60,63c-0.6,0-1,0.4-1,1s0.4,1,1,1c3.3,0,6,2.7,6,6c0,0.6,0.4,1,1,1s1-0.4,1-1C68,66.6,64.4,63,60,63z"/>
</g>
</g>
<g id="television"/>
<g id="crime_scane"/>
<g id="note"/>
<g id="recorder"/>
<g id="station_television"/>
<g id="file_storage"/>
<g id="news_anchor"/>
<g id="trending_news"/>
<g id="world_news"/>
<g id="document"/>
<g id="radio"/>
<g id="video_recorder"/>
</svg>