<?xml version="1.0" encoding="iso-8859-1"?>
<!-- Uploaded to: SVG Repo, www.svgrepo.com, Generator: SVG Repo Mixer Tools -->
<svg fill="#000000" height="800px" width="800px" version="1.1" id="Layer_1" xmlns="http://www.w3.org/2000/svg" xmlns:xlink="http://www.w3.org/1999/xlink" 
	 viewBox="0 0 512 512" xml:space="preserve">
<g>
	<g>
		<path d="M478.609,166.957v-66.783h-33.391V66.783h-33.391V33.391h-66.783V0H166.957v33.391h-66.783v33.391H66.783v33.391H33.391
			v66.783H0v178.087h33.391v66.783h33.391v33.391h33.391v33.391h66.783V512h178.087v-33.391h66.783v-33.391h33.391v-33.391h33.391
			v-66.783H512V166.957H478.609z M367.304,166.957h-33.391v44.522h-33.391v33.391h33.391v33.391H267.13v33.391h66.783v33.391H267.13
			v77.913h-33.391v-77.913h-66.783v-33.391h66.783v-33.391h-66.783V244.87h33.391v-33.391h-33.391v-44.522h-33.391v-44.522h33.391
			v44.522h33.391v44.522h33.391v33.391h33.391v-33.391h33.391v-44.522h33.391v-44.522h33.391V166.957z"/>
	</g>
</g>
</svg>